<svg id="_64_個の_UI_アイコンセット" data-name="64 個の UI アイコンセット" xmlns="http://www.w3.org/2000/svg" viewBox="0 0 79.44 79.9"><path d="M46.65,38.8a2.22,2.22,0,0,1,2.85-3.37L71.38,51a2.21,2.21,0,1,1-2.57,3.6L46.93,39Z" transform="translate(-12.27 -12.03)"/><path d="M51.35,34.1a2.22,2.22,0,0,1,2.86-3.37L76.08,46.34a2.21,2.21,0,1,1-2.57,3.6L51.63,34.34Z" transform="translate(-12.27 -12.03)"/><path d="M42,43.5a2.21,2.21,0,0,1,2.85-3.37L66.68,55.74a2.22,2.22,0,1,1-2.57,3.61L42.23,43.74A2.09,2.09,0,0,1,42,43.5Z" transform="translate(-12.27 -12.03)"/><path d="M37.25,48.2a2.21,2.21,0,0,1,2.85-3.37L62,60.44a2.22,2.22,0,0,1-2.57,3.61L37.53,48.44A1.61,1.61,0,0,1,37.25,48.2Z" transform="translate(-12.27 -12.03)"/><path d="M32.55,52.9a2.21,2.21,0,0,1,2.85-3.36l21.88,15.6a2.22,2.22,0,0,1-2.57,3.61L32.83,53.14A1.61,1.61,0,0,1,32.55,52.9Z" transform="translate(-12.27 -12.03)"/><path d="M27.85,57.6a2.21,2.21,0,0,1,2.85-3.36l21.88,15.6A2.22,2.22,0,0,1,50,73.45L28.13,57.84A1.61,1.61,0,0,1,27.85,57.6Z" transform="translate(-12.27 -12.03)"/><path d="M67.82,20.86a.44.44,0,0,1-.39.23.41.41,0,0,1-.24-.08L64.29,19a.43.43,0,0,1-.2-.37.55.55,0,0,1,.06-.22,14,14,0,0,1,10.07-6.24A15.39,15.39,0,0,1,86.89,17c7.33,7.33,5,16.28,1.74,20.19-5,6-13.63,5.43-19.24,1.78L56.25,29.55a2.09,2.09,0,0,1-.28-.24A2.21,2.21,0,0,1,58.82,26l13.06,9.31c3.93,2.56,10,3.13,13.33-.93,1.6-2,4.47-8.32-1.45-14.25a11,11,0,0,0-9-3.56A9.49,9.49,0,0,0,67.82,20.86Z" transform="translate(-12.27 -12.03)"/><path d="M36.18,83.1a.43.43,0,0,1,.38-.22.52.52,0,0,1,.25.07L39.7,85a.42.42,0,0,1,.2.37.51.51,0,0,1-.06.21,13.94,13.94,0,0,1-10.07,6.24A15.34,15.34,0,0,1,17.11,87c-7.34-7.33-5-16.27-1.74-20.19,5-6,13.62-5.43,19.24-1.78l13.13,9.37a1.61,1.61,0,0,1,.28.24A2.21,2.21,0,0,1,45.17,78L32.11,68.7c-3.92-2.55-10-3.13-13.32.94-1.61,2-4.48,8.32,1.45,14.24a11,11,0,0,0,9,3.56A9.48,9.48,0,0,0,36.18,83.1Z" transform="translate(-12.27 -12.03)"/></svg>