<svg id="_64_個の_UI_アイコンセット" data-name="64 個の UI アイコンセット" xmlns="http://www.w3.org/2000/svg" viewBox="0 0 80 80"><path d="M84.46,31.73,73.29,12.38A.75.75,0,0,0,73,12.1a.64.64,0,0,0-.35-.1H50.31a.74.74,0,0,0-.37.1.64.64,0,0,0-.27.27L38.49,31.73a.68.68,0,0,0-.09.35.73.73,0,0,0,.1.37L49.88,52.16H72.63a.75.75,0,0,0,.38-.1.69.69,0,0,0,.26-.25L84.44,32.46a.7.7,0,0,0,.11-.38A.68.68,0,0,0,84.46,31.73Zm-23,11.78A11.43,11.43,0,1,1,72.91,32.08,11.44,11.44,0,0,1,61.48,43.51Z" transform="translate(-12 -12)"/><path d="M91.92,75.32,82.81,59.53a.63.63,0,0,0-.23-.23.74.74,0,0,0-.28-.08H64.06a.68.68,0,0,0-.31.08.69.69,0,0,0-.22.23L54.41,75.32a.6.6,0,0,0-.08.29.66.66,0,0,0,.09.31L63.7,92H82.27a.58.58,0,0,0,.31-.08.53.53,0,0,0,.21-.21l9.12-15.79a.54.54,0,0,0,.09-.31A.6.6,0,0,0,91.92,75.32ZM73.17,84.94a9.33,9.33,0,1,1,9.33-9.33A9.32,9.32,0,0,1,73.17,84.94Z" transform="translate(-12 -12)"/><path d="M44.31,66.51,36.47,52.93a.5.5,0,0,0-.19-.19.45.45,0,0,0-.25-.07H20.36a.54.54,0,0,0-.27.07.5.5,0,0,0-.19.19L12.06,66.51a.51.51,0,0,0-.06.25.59.59,0,0,0,.07.26l8,13.82H36a.52.52,0,0,0,.27-.07.39.39,0,0,0,.18-.18L44.3,67a.48.48,0,0,0,.07-.26A.51.51,0,0,0,44.31,66.51ZM28.19,74.78a8,8,0,1,1,8-8A8,8,0,0,1,28.19,74.78Z" transform="translate(-12 -12)"/></svg>