<svg id="_64_個の_UI_アイコンセット" data-name="64 個の UI アイコンセット" xmlns="http://www.w3.org/2000/svg" viewBox="0 0 80.01 78.98"><path d="M12.12,83.46a.34.34,0,0,0,0,.47l6.31,6.94a.34.34,0,0,0,.47,0l.72-.65-6.76-7.43Z" transform="translate(-12.01 -12)"/><path d="M67.77,34.5C57.64,43,53.51,45.26,51.61,45.26a1.54,1.54,0,0,1-1.17-.46l-37.24,37a.32.32,0,0,0,0,.46l7,7.75a.34.34,0,0,0,.47,0L72,39.12Z" transform="translate(-12.01 -12)"/><path d="M73,38.48a.44.44,0,0,0,.33.14.51.51,0,0,0,.3-.1c1.27-1.09,2.46-2.13,3.88-3.42,11.26-10.19,16.33-19.78,14-22.35A2.86,2.86,0,0,0,89.28,12a16.41,16.41,0,0,0-6.49,1.93,66.85,66.85,0,0,0-15,10.54C54.17,36.83,50.38,43,51.19,43.9c.6.7,3.51.24,16.4-10.63L68,33Z" transform="translate(-12.01 -12)"/></svg>